<svg xmlns="http://www.w3.org/2000/svg" width="231.49" height="35" viewBox="0 0 231.49 35"><rect class="svg__rect" x="0" y="0" width="111.00999999999999" height="35" fill="#7E459B"/><rect class="svg__rect" x="109.00999999999999" y="0" width="122.48" height="35" fill="#B382BA"/><path class="svg__text" d="M15.00 22L13.46 22L16.68 13.47L18.01 13.47L21.24 22L19.69 22L18.99 20.01L15.69 20.01L15.00 22ZM17.34 15.28L16.10 18.82L18.58 18.82L17.34 15.28ZM26.87 14.66L24.24 14.66L24.24 13.47L31.00 13.47L31.00 14.66L28.34 14.66L28.34 22L26.87 22L26.87 14.66ZM36.32 22L34.85 22L34.85 13.47L36.32 13.47L36.32 22ZM43.43 22L40.37 13.47L42.00 13.47L44.14 20.14L46.31 13.47L47.94 13.47L44.87 22L43.43 22ZM53.45 22L51.98 22L51.98 13.47L53.45 13.47L53.45 22ZM60.72 22L58.26 22L58.26 13.47L60.78 13.47Q61.91 13.47 62.79 13.97Q63.66 14.48 64.14 15.40Q64.63 16.33 64.63 17.52L64.63 17.52L64.63 17.95Q64.63 19.16 64.14 20.08Q63.66 21.00 62.77 21.50Q61.87 22 60.72 22L60.72 22ZM59.74 14.66L59.74 20.82L60.71 20.82Q61.88 20.82 62.50 20.09Q63.13 19.36 63.14 17.99L63.14 17.99L63.14 17.52Q63.14 16.13 62.53 15.40Q61.93 14.66 60.78 14.66L60.78 14.66L59.74 14.66ZM69.87 22L68.33 22L71.55 13.47L72.88 13.47L76.11 22L74.56 22L73.87 20.01L70.56 20.01L69.87 22ZM72.21 15.28L70.98 18.82L73.45 18.82L72.21 15.28ZM82.52 22L80.06 22L80.06 13.47L82.58 13.47Q83.72 13.47 84.59 13.97Q85.47 14.48 85.95 15.40Q86.43 16.33 86.43 17.52L86.43 17.52L86.43 17.95Q86.43 19.16 85.94 20.08Q85.46 21.00 84.57 21.50Q83.67 22 82.52 22L82.52 22ZM81.55 14.66L81.55 20.82L82.51 20.82Q83.68 20.82 84.30 20.09Q84.93 19.36 84.94 17.99L84.94 17.99L84.94 17.52Q84.94 16.13 84.34 15.40Q83.73 14.66 82.58 14.66L82.58 14.66L81.55 14.66ZM96.47 22L90.89 22L90.89 13.47L96.43 13.47L96.43 14.66L92.38 14.66L92.38 17.02L95.88 17.02L95.88 18.19L92.38 18.19L92.38 20.82L96.47 20.82L96.47 22Z" fill="#FFFFFF"/><path class="svg__text" d="M129.94 22L123.20 22L123.20 13.60L129.79 13.60L129.79 15.44L125.55 15.44L125.55 16.85L129.29 16.85L129.29 18.63L125.55 18.63L125.55 20.17L129.94 20.17L129.94 22ZM136.60 22L133.89 22L136.94 17.75L134.01 13.60L136.69 13.60L138.37 16.02L140.03 13.60L142.60 13.60L139.67 17.66L142.79 22L140.06 22L138.32 19.40L136.60 22ZM153.82 22L147.07 22L147.07 13.60L153.67 13.60L153.67 15.44L149.43 15.44L149.43 16.85L153.16 16.85L153.16 18.63L149.43 18.63L149.43 20.17L153.82 20.17L153.82 22ZM161.00 22L158.62 22L158.62 13.60L162.47 13.60Q163.61 13.60 164.45 13.98Q165.29 14.35 165.74 15.06Q166.20 15.76 166.20 16.71L166.20 16.71Q166.20 17.62 165.77 18.30Q165.34 18.98 164.55 19.36L164.55 19.36L166.36 22L163.82 22L162.30 19.77L161.00 19.77L161.00 22ZM161.00 15.47L161.00 17.93L162.32 17.93Q163.05 17.93 163.43 17.61Q163.80 17.29 163.80 16.71L163.80 16.71Q163.80 16.12 163.43 15.79Q163.05 15.47 162.32 15.47L162.32 15.47L161.00 15.47ZM170.56 17.80L170.56 17.80Q170.56 16.54 171.16 15.54Q171.75 14.55 172.81 13.99Q173.86 13.43 175.18 13.43L175.18 13.43Q176.33 13.43 177.25 13.84Q178.18 14.25 178.79 15.02L178.79 15.02L177.28 16.39Q176.47 15.40 175.30 15.40L175.30 15.40Q174.61 15.40 174.08 15.70Q173.55 16 173.25 16.54Q172.96 17.09 172.96 17.80L172.96 17.80Q172.96 18.51 173.25 19.05Q173.55 19.60 174.08 19.90Q174.61 20.20 175.30 20.20L175.30 20.20Q176.47 20.20 177.28 19.22L177.28 19.22L178.79 20.58Q178.18 21.35 177.26 21.76Q176.33 22.17 175.18 22.17L175.18 22.17Q173.86 22.17 172.81 21.61Q171.75 21.05 171.16 20.05Q170.56 19.06 170.56 17.80ZM185.71 22L183.33 22L183.33 13.60L185.71 13.60L185.71 22ZM184.97 12.92L183.34 12.92L184.95 11.09L187.23 11.09L184.97 12.92ZM190.45 17.80L190.45 17.80Q190.45 16.54 191.05 15.54Q191.65 14.55 192.70 13.99Q193.75 13.43 195.07 13.43L195.07 13.43Q196.22 13.43 197.15 13.84Q198.07 14.25 198.68 15.02L198.68 15.02L197.17 16.39Q196.36 15.40 195.19 15.40L195.19 15.40Q194.51 15.40 193.97 15.70Q193.44 16 193.14 16.54Q192.85 17.09 192.85 17.80L192.85 17.80Q192.85 18.51 193.14 19.05Q193.44 19.60 193.97 19.90Q194.51 20.20 195.19 20.20L195.19 20.20Q196.36 20.20 197.17 19.22L197.17 19.22L198.68 20.58Q198.07 21.35 197.15 21.76Q196.22 22.17 195.07 22.17L195.07 22.17Q193.75 22.17 192.70 21.61Q191.65 21.05 191.05 20.05Q190.45 19.06 190.45 17.80ZM205.60 22L203.22 22L203.22 13.60L205.60 13.60L205.60 22ZM210.34 17.80L210.34 17.80Q210.34 16.55 210.95 15.55Q211.55 14.56 212.61 14.00Q213.68 13.43 215.01 13.43L215.01 13.43Q216.34 13.43 217.40 14.00Q218.47 14.56 219.07 15.55Q219.68 16.55 219.68 17.80L219.68 17.80Q219.68 19.05 219.07 20.04Q218.47 21.04 217.40 21.60Q216.34 22.17 215.01 22.17L215.01 22.17Q213.68 22.17 212.61 21.60Q211.55 21.04 210.95 20.04Q210.34 19.05 210.34 17.80ZM212.74 17.80L212.74 17.80Q212.74 18.51 213.04 19.05Q213.34 19.60 213.86 19.90Q214.38 20.20 215.01 20.20L215.01 20.20Q215.65 20.20 216.16 19.90Q216.68 19.60 216.98 19.05Q217.28 18.51 217.28 17.80L217.28 17.80Q217.28 17.09 216.98 16.54Q216.68 16 216.16 15.70Q215.65 15.40 215.01 15.40L215.01 15.40Q214.37 15.40 213.86 15.70Q213.34 16 213.04 16.54Q212.74 17.09 212.74 17.80Z" fill="#FFFFFF" x="122.00999999999999"/></svg>